<svg xmlns="http://www.w3.org/2000/svg" viewBox="0 0 438 200" width="438" height="200" role="img" aria-label="ANI">
  <g fill="#b5674a" fill-rule="nonzero" transform="translate(25.4 174)">
    <path d="M142.2 -2.4Q143 -2.4 143 -1.2Q143 0 142.2 0L142.2 0Q138.4 0 130 -0.4L130 -0.4Q121.6 -0.8 117.8 -0.8L117.8 -0.8Q112.8 -0.8 106 -0.4L106 -0.4Q99.2 0 95.4 0L95.4 0Q94.6 0 94.6 -1.2Q94.6 -2.4 95.4 -2.4L95.4 -2.4Q101.4 -2.4 104 -3.6Q106.6 -4.8 106.6 -7.8L106.6 -7.8Q106.6 -11 103.2 -18.2L103.2 -18.2L88 -49L39.6 -49L30 -27.4Q27.4 -21.4 27.4 -16.4L27.4 -16.4Q27.4 -9.6 32.4 -6Q37.4 -2.4 46.4 -2.4L46.4 -2.4Q47.4 -2.4 47.4 -1.2Q47.4 0 46.4 0L46.4 0Q42.8 0 36 -0.4L36 -0.4Q28.4 -0.8 22.8 -0.8L22.8 -0.8Q17.4 -0.8 10.2 -0.4L10.2 -0.4Q3.8 0 -0.4 0L-0.4 0Q-1.4 0 -1.4 -1.2Q-1.4 -2.4 -0.4 -2.4L-0.4 -2.4Q5.2 -2.4 9 -4.6Q12.8 -6.8 16.4 -12.5Q20 -18.2 25 -29.4L25 -29.4L33.93 -49.5L34.11 -50.37L34.5 -51.29L34.84 -52.13L35.15 -52.99L35.44 -53.83L35.56 -54.29L35.51 -54.45L35.43 -54.78L35.25 -55.36L34.95 -56.23L34.58 -57.25L34.26 -58.28L34 -59.17L33.71 -59.99L33.33 -61.07L32.98 -62.63L33.2 -64.78L34.5 -66.62L35.87 -67.54L36.87 -68.09L37.64 -68.56L38.14 -68.99L37.96 -69.06L37.64 -68.7L37.59 -68.81L37.42 -69.58L37.28 -70.61L37.16 -71.43L36.96 -72.44L36.78 -73.9L37.26 -76.12L39.01 -77.78L40.52 -78.37L41.42 -78.73L41.81 -79.08L42.02 -79.51L42.22 -79.9L42 -79.63L42.08 -78.94L42.22 -78.91L41.83 -79.44L41.22 -80.04L40.48 -80.72L39.76 -81.41L39.17 -82L38.48 -82.63L37.72 -83.29L36.93 -83.97L36.02 -84.77L35.03 -85.74L34.02 -87.2L33.55 -89.49L34.83 -92.01L36.81 -92.93L37.91 -93.23L38.76 -93.56L39.64 -93.86L40.62 -94.19L41.52 -94.5L42.45 -94.83L43.41 -95.18L44.28 -95.5L45.21 -95.84L46.17 -96.2L47.14 -96.57L48.09 -96.95L49 -97.33L49.89 -97.71L50.78 -98.1L51.67 -98.5L52.53 -98.89L53.33 -99.3L54.05 -99.69L54.79 -100.15L55.43 -100.6L56.09 -101.11L56.64 -101.64L56.9 -102.05L56.83 -102.17L56.71 -102.14L56.65 -102.71L56.64 -103.89L56.78 -105.05L56.91 -105.99L57.07 -107.04L57.31 -108.19L57.62 -109.3L58 -110.4L58.44 -111.47L58.86 -112.42L59.31 -113.37L59.79 -114.32L60.3 -115.27L60.84 -116.23L61.44 -117.2L61.99 -118.03L62.54 -118.83L63.08 -119.62L63.64 -120.38L64.17 -121.11L64.77 -121.95L65.34 -122.79L65.92 -123.63L66.49 -124.45L67.04 -125.25L67.54 -126.02L68 -126.2Q68.4 -126.8 70 -126.8L70 -126.8Q71.2 -126.8 71.4 -126.2L71.4 -126.2L120.4 -27.4Q127.4 -13 132 -7.7Q136.6 -2.4 142.2 -2.4L142.2 -2.4ZM41.8 -54L85.6 -54L62.6 -100.8L62.6 -99.65L61.5 -98.25L60.45 -97.35L59.41 -96.62L58.45 -96.01L57.55 -95.49L56.57 -94.98L55.65 -94.55L54.73 -94.13L53.78 -93.73L52.84 -93.32L51.91 -92.93L50.97 -92.55L49.97 -92.16L48.96 -91.78L47.95 -91.41L46.97 -91.05L46.03 -90.7L45.14 -90.38L44.14 -90.03L43.17 -89.7L42.26 -89.39L41.32 -89.07L40.5 -88.76L39.59 -88.44L38.97 -88.17L39.36 -88.16L40.02 -89.01L39.92 -89.51L39.89 -89.33L40.19 -88.86L40.81 -88.22L41.5 -87.59L42.26 -86.93L43.05 -86.25L43.76 -85.6L44.45 -84.93L45.16 -84.27L45.95 -83.56L46.91 -82.65L48.07 -81.08L48.36 -78.49L47.28 -76.5L46.2 -75.43L44.98 -74.53L43.58 -73.97L42.65 -73.6L42.5 -73.36L43.01 -73.57L43.28 -73.95L43.34 -73.49L43.53 -72.54L43.69 -71.5L43.79 -70.68L44 -69.68L44.07 -67.89L43.18 -65.82L41.69 -64.58L40.5 -63.92L39.67 -63.44L39.11 -63.02L38.98 -62.73L39.35 -63L39.46 -63.13L39.53 -62.75L39.73 -62.07L40.07 -61.16L40.38 -60.13L40.64 -59.25L40.95 -58.35L41.32 -57.34L41.66 -56.17L41.87 -54.62Z"/>
    <path transform="translate(160.2 0)" d="M25 -24.2L25 -112Q19.4 -117.8 14.9 -120.2Q10.4 -122.6 5.8 -122.6L5.8 -122.6Q5.2 -122.6 5.2 -123.8Q5.2 -125 5.8 -125L5.8 -125L21 -124.6L33.8 -124.8Q36.6 -125 39.4 -125L39.4 -125Q41 -125 41.8 -124.2Q42.6 -123.4 44.4 -121L44.4 -121Q45.4 -119.6 46.5 -118Q47.6 -116.4 49.2 -114.6L49.2 -114.6L121.2 -29.8L121.2 -100.6Q121.2 -111.2 117.1 -116.9Q113 -122.6 105 -122.6L105 -122.6Q104.6 -122.6 104.6 -123.8Q104.6 -125 105 -125L105 -125L113.2 -124.8Q119.6 -124.4 123.8 -124.4L123.8 -124.4Q127.6 -124.4 134.8 -124.8L134.8 -124.8L143.2 -125Q143.8 -125 143.8 -123.8Q143.8 -122.6 143.2 -122.6L143.2 -122.6Q135.2 -122.6 130.9 -116.9Q126.6 -111.2 126.6 -100.6L126.6 -100.6L126.6 2.8Q126.6 3.4 125.6 3.6Q124.6 3.8 124.2 3.4L124.2 3.4L30.4 -105.8L30.4 -24.2Q30.4 -13.6 34.5 -8Q38.6 -2.4 46.6 -2.4L46.6 -2.4Q47.2 -2.4 47.2 -1.2Q47.2 0 46.6 0L46.6 0Q41.4 0 38.6 -0.2L38.6 -0.2L28 -0.4L7 0Q6.4 0 6.4 -1.2Q6.4 -2.4 7 -2.4L7 -2.4Q15.6 -2.4 20.3 -8Q25 -13.6 25 -24.2L25 -24.2Z"/>
    <path transform="translate(324.6 0)" d="M43.4 -16.2Q43.4 -10 44.5 -7.2Q45.6 -4.4 48.7 -3.4Q51.8 -2.4 58.6 -2.4L58.6 -2.4Q59.2 -2.4 59.2 -1.2Q59.2 0 58.6 0L58.6 0Q52.2 0 48.4 -0.2L48.4 -0.2L33.6 -0.4L19.2 -0.2Q15.4 0 8.8 0L8.8 0Q8.2 0 8.2 -1.2Q8.2 -2.4 8.8 -2.4L8.8 -2.4Q15.6 -2.4 18.7 -3.4Q21.8 -4.4 23 -7.3Q24.2 -10.2 24.2 -16.2L24.2 -16.2L24.2 -108.8Q24.2 -114.8 23 -117.6Q21.8 -120.4 18.7 -121.5Q15.6 -122.6 8.8 -122.6L8.8 -122.6Q8.2 -122.6 8.2 -123.8Q8.2 -125 8.8 -125L8.8 -125L19.2 -124.8Q28 -124.4 33.6 -124.4L33.6 -124.4Q39.8 -124.4 48.6 -124.8L48.6 -124.8L58.6 -125Q59.2 -125 59.2 -123.8Q59.2 -122.6 58.6 -122.6L58.6 -122.6Q52 -122.6 48.8 -121.4Q45.6 -120.2 44.5 -117.3Q43.4 -114.4 43.4 -108.4L43.4 -108.4L43.4 -16.2Z"/>
  </g>
</svg>
