<svg xmlns="http://www.w3.org/2000/svg" viewBox="0 0 259 259" width="259" height="259" role="img" aria-label="ANI monogram">
  <path d="M68.8 0.8H234.3A24 24 0 0 1 258.3 24.8V190.3A68 68 0 0 1 190.3 258.3H24.8A24 24 0 0 1 0.8 234.3V68.8A68 68 0 0 1 68.8 0.8Z" fill="#fdf8f2" stroke="#3a2e2a" stroke-width="1.5"/>
  <path d="M69.5 9.5H233.5A16 16 0 0 1 249.5 25.5V189.5A60 60 0 0 1 189.5 249.5H25.5A16 16 0 0 1 9.5 233.5V69.5A60 60 0 0 1 69.5 9.5Z" fill="#b5674a"/>
  <path fill="#fdf8f2" d="M88.2 140.1L88.2 122.2L169.8 122.2L169.8 140.1ZM61.5 151.7L112.7 75.3L145.8 75.3L197.5 151.7L164.7 151.7L120.4 83.3L138.2 83.3L94.3 151.7Z"/>
  <rect x="61.5" y="167.7" width="136" height="16" rx="8" fill="#ffd97a"/>
</svg>
